<svg id="Layer_1" data-name="Layer 1" xmlns="http://www.w3.org/2000/svg" viewBox="0 0 246.94 72"><defs><style>.cls-1{fill:#000718;}.cls-2{fill:#0091da;}</style></defs><path class="cls-1" d="M12.15,72H0V26.26H17v40.9A4.84,4.84,0,0,1,12.15,72M17,16.64V0H0V16.64H17m87.19,50.52V0h-17V72H99.34a4.84,4.84,0,0,0,4.83-4.84M173.65,17V0H115.8V17h20.43V72h12.15a4.84,4.84,0,0,0,4.84-4.84V17ZM75.56,17V0H49.9A21.29,21.29,0,0,0,28.61,21.29V72H40.76a4.84,4.84,0,0,0,4.83-4.84V49H69.86V35H45.59V23.84A6.86,6.86,0,0,1,52.45,17Z"/><path class="cls-2" d="M220.28,30.08a.78.78,0,0,1-1.12,0h0L189.1,0h20.81a8,8,0,0,1,5.67,2.35l6.53,6.54a12.25,12.25,0,0,1,3.6,10.19,19.25,19.25,0,0,1-5.43,11m14.56-8.45h0a1.78,1.78,0,0,0-1.13-.53h-.09a1.8,1.8,0,0,0-1.85,1.57,22.8,22.8,0,0,1-6.51,13.15L189.09,72H209.9a7.94,7.94,0,0,0,5.67-2.35l29.78-29.81a5.44,5.44,0,0,0,0-7.69Z"/></svg>